<svg version="1.1" id="Layer_1" xmlns="http://www.w3.org/2000/svg" xmlns:xlink="http://www.w3.org/1999/xlink" x="0px" y="0px"
	 width="100%" viewBox="0 0 413 604" enable-background="new 0 0 413 604" xml:space="preserve">

<path fill="#0166A7" opacity="1.000000" stroke="none"
	d="
M191.625000,1.000000
	C192.969086,6.992703 193.973053,12.980023 194.899078,18.979374
	C196.278366,27.915449 197.489731,36.878899 198.981125,45.795811
	C200.571823,55.306366 202.501114,64.760109 204.108261,74.268120
	C206.160858,86.411392 207.917740,98.605263 210.030853,110.737480
	C211.688400,120.254036 213.856400,129.681763 215.508423,139.199158
	C218.453430,156.165588 221.101761,173.183426 224.024139,190.153931
	C226.110718,202.270813 228.531021,214.330032 230.640701,226.443161
	C232.862122,239.197876 234.836609,251.995453 237.022217,264.756622
	C238.682007,274.447876 240.582611,284.097931 242.235046,293.790375
	C244.880051,309.304871 247.338242,324.851349 250.011536,340.360840
	C251.653503,349.886932 253.663574,359.349609 255.301361,368.876343
	C257.301483,380.510742 258.964844,392.203400 260.999146,403.831421
	C262.664062,413.348053 264.819672,422.779083 266.471222,432.297760
	C269.080627,447.337250 271.342743,462.437012 273.959686,477.475098
	C275.645416,487.162048 277.835602,496.760773 279.552368,506.442871
	C280.942719,514.284302 281.964142,522.191040 283.330933,531.277039
	C273.748657,526.961182 265.451508,523.175720 257.114838,519.479370
	C239.291245,511.576630 221.412109,503.798248 203.624191,495.816345
	C192.230896,490.703888 181.008942,485.209900 169.622101,480.082550
	C153.673721,472.901245 137.609680,465.976898 121.657631,458.803619
	C106.140335,451.825867 90.609810,444.865479 75.260231,437.530914
	C64.556946,432.416504 53.861027,427.167236 43.683537,421.102631
	C31.461655,413.819733 21.021343,403.999634 14.098930,391.634766
	C9.103765,382.712372 6.633039,372.378387 3.002931,362.686554
	C2.736317,361.974762 2.198223,361.364655 1.393177,360.853638
	C1.000000,348.979095 1.000000,336.958221 1.392807,324.612854
	C2.205381,323.465332 2.774473,322.684570 3.021441,321.812531
	C5.103414,314.461212 6.872694,307.011169 9.221642,299.747833
	C13.704078,285.887451 21.971594,274.007843 29.623350,261.811249
	C37.486176,249.278229 45.185879,236.642975 52.983768,224.069092
	C64.265579,205.877502 75.632957,187.738678 86.847397,169.505722
	C95.567894,155.327530 104.149567,141.063370 112.720070,126.793655
	C119.571350,115.386421 126.095802,103.777161 133.162170,92.506378
	C140.749207,80.405128 149.015350,68.729424 156.592850,56.622494
	C165.915985,41.726490 174.889282,26.609833 183.882980,11.510633
	C185.870010,8.174677 187.308762,4.512147 189.000000,0.999999
	C189.750000,1.000000 190.500000,1.000000 191.625000,1.000000
z"/>

<path fill="#7DC243" opacity="1.000000" stroke="none"
	d="
M323.399994,605.000000
	C321.607452,594.864075 320.285156,584.717834 318.801727,574.595215
	C317.429504,565.231506 315.847931,555.898560 314.425720,546.541870
	C312.792053,535.794067 311.236267,525.034363 309.639221,514.281006
	C308.076691,503.760254 306.516846,493.239075 304.933380,482.721466
	C303.593933,473.824860 302.241302,464.930145 300.860413,456.039886
	C298.929993,443.611816 297.015137,431.181030 295.006805,418.765442
	C292.736023,404.727417 290.199615,390.730377 288.087494,376.669159
	C285.535522,359.679077 283.315308,342.639313 280.925201,325.624725
	C280.730804,324.241028 280.333649,322.885834 279.697083,320.010376
	C283.268250,321.929474 285.898743,322.996002 288.140686,324.604218
	C302.698730,335.046967 317.106079,345.700378 331.690460,356.105804
	C349.664459,368.929626 367.755493,381.589539 385.812927,394.296173
	C390.063324,397.287140 394.298370,400.313354 398.688660,403.088898
	C405.063232,407.119019 408.515503,413.259308 411.470001,419.852448
	C411.923340,420.864136 412.759979,421.704102 413.709656,422.311737
	C414.000000,431.687561 414.000000,441.375122 413.694763,451.214722
	C412.913330,452.181488 412.349915,452.958069 411.974976,453.816956
	C409.195312,460.183868 406.942871,466.838989 403.587097,472.882935
	C398.219086,482.551056 391.992676,491.738007 386.372894,501.272064
	C378.547882,514.547485 371.065674,528.025146 363.221161,541.288818
	C353.676514,557.427124 343.790161,573.363892 334.307312,589.537781
	C331.435425,594.436157 329.412048,599.832031 327.000000,605.000000
	C325.933319,605.000000 324.866669,605.000000 323.399994,605.000000
z"/>

</svg>
